<svg width="24" height="24" viewBox="0 0 24 24" fill="none" xmlns="http://www.w3.org/2000/svg">
<g clip-path="url(#clip0_979_1019)">
<path d="M23.6521 11.9941C23.6521 18.6027 18.3537 23.9882 11.8261 23.9882C5.31015 23.9882 0 18.6027 0 11.9941C0 5.37383 5.31015 0 11.8261 0C18.3537 0 23.6521 5.37383 23.6521 11.9941ZM12.8116 7.93728V8.53698C12.5217 8.44291 12.1855 8.40764 11.8145 8.40764C11.4666 8.40764 11.1189 8.45467 10.8174 8.5605V7.93728C10.8174 6.82018 10.0638 6.06761 8.89276 6.06761C7.98841 6.06761 7.26957 6.53796 6.93333 7.32581L4.41739 13.2405C4.17392 13.8403 4.12754 14.2518 4.12754 14.6986C4.12754 16.4037 5.6116 17.6854 7.46668 17.6854C9.31015 17.6854 10.8174 16.4037 10.8174 14.6986V13.1229C11.0956 13.0053 11.4551 12.9348 11.8145 12.9348C12.2087 12.9348 12.5449 12.9819 12.8116 13.0759V14.6986C12.8116 16.4037 14.3189 17.6854 16.1507 17.6854C18.0058 17.6854 19.5014 16.4037 19.5014 14.6986C19.5014 14.2518 19.4434 13.8403 19.2116 13.2405L16.7072 7.32581C16.371 6.53796 15.6406 6.06761 14.7362 6.06761C13.5652 6.06761 12.8116 6.82018 12.8116 7.93728ZM9.6 14.6986C9.6 15.7335 8.74204 16.4507 7.46668 16.4507C6.2145 16.4507 5.36812 15.7335 5.36812 14.6986C5.36812 13.6521 6.2145 12.9348 7.46668 12.9348C8.74204 12.9348 9.6 13.6521 9.6 14.6986ZM18.2608 14.6986C18.2608 15.7335 17.4029 16.4507 16.1507 16.4507C14.887 16.4507 14.0174 15.7335 14.0174 14.6986C14.0174 13.6521 14.887 12.9348 16.1507 12.9348C17.4029 12.9348 18.2608 13.6521 18.2608 14.6986ZM12.8116 10.3713V11.2298C12.5449 11.1475 12.2087 11.1004 11.8145 11.1004C11.4551 11.1004 11.0956 11.1592 10.8174 11.3003V10.3949C11.1073 10.3008 11.4666 10.242 11.8145 10.242C12.1855 10.242 12.5217 10.2891 12.8116 10.3713Z" fill="#FD9449"/>
</g>
<defs>
<clipPath id="clip0_979_1019">
<rect width="24" height="24" fill="white"/>
</clipPath>
</defs>
</svg>
