<svg width="24" height="24" viewBox="0 0 24 24" fill="none" xmlns="http://www.w3.org/2000/svg">
<g clip-path="url(#clip0_983_1062)">
<path d="M23.6521 11.9941C23.6521 18.6027 18.3537 23.9882 11.8261 23.9882C5.31015 23.9882 0 18.6027 0 11.9941C0 5.37383 5.31015 0 11.8261 0C18.3537 0 23.6521 5.37383 23.6521 11.9941ZM10.0174 16.2508L13.1594 18.05C13.2637 18.097 13.3681 18.1323 13.4493 18.1558V7.83145L10.3768 5.9265C10.2609 5.85595 10.1565 5.80891 10.0174 5.78539V16.2508ZM17.0551 6.17343L14.3072 7.71386V18.144C14.3652 18.1205 14.4232 18.097 14.4927 18.0617L17.7392 16.192C18.1102 15.9687 18.2841 15.6629 18.2841 15.2513V6.73786C18.2841 6.25575 18.0174 6.00881 17.5768 6.00881C17.4145 6.00881 17.2522 6.05585 17.0551 6.17343ZM8.8116 6.07936L5.85508 7.79617C5.48406 8.00783 5.32175 8.31357 5.32175 8.73688V17.2386C5.32175 17.7089 5.57682 17.9794 6.02899 17.9794C6.19131 17.9794 6.35363 17.9089 6.55072 17.803L9.17102 16.3684V5.89122C9.06667 5.95002 8.93914 6.02057 8.8116 6.07936Z" fill="#121217"/>
</g>
<defs>
<clipPath id="clip0_983_1062">
<rect width="24" height="24" fill="white"/>
</clipPath>
</defs>
</svg>
