<svg width="24" height="24" viewBox="0 0 24 24" fill="none" xmlns="http://www.w3.org/2000/svg">
<g clip-path="url(#clip0_981_1043)">
<path d="M23.6521 11.9941C23.6521 18.6027 18.3537 23.9882 11.8261 23.9882C5.31015 23.9882 0 18.6027 0 11.9941C0 5.37383 5.31015 0 11.8261 0C18.3537 0 23.6521 5.37383 23.6521 11.9941ZM16.1855 6.05585L4.89275 11.4885C4.11595 11.8647 4.24348 12.9936 5.28696 12.9936L10.2956 13.0053C10.5275 13.0053 10.6783 13.1583 10.6783 13.3935V18.4145C10.6783 19.4963 11.8145 19.6022 12.1739 18.826L17.4841 7.34933C17.9131 6.40862 17.1247 5.609 16.1855 6.05585Z" fill="#266DF1"/>
</g>
<defs>
<clipPath id="clip0_981_1043">
<rect width="24" height="24" fill="white"/>
</clipPath>
</defs>
</svg>
