<svg width="48" height="48" viewBox="0 0 48 48" fill="none" xmlns="http://www.w3.org/2000/svg">
<g clip-path="url(#clip0_933_655)">
<path d="M25.2712 43.7546C34.1008 43.7546 40.0022 40.5671 40.0022 35.8024C40.0022 31.8519 37.0531 31.1394 37.0531 28.9146C37.0531 25.8872 47.5709 25.5865 47.5709 17.4786C47.5709 9.36593 39.1785 3.99902 26.6344 3.99902C10.7016 3.99902 0.000244141 12.296 0.000244141 24.1442C0.000244141 35.8944 10.161 43.7546 25.2712 43.7546ZM25.2757 36.2926C22.1394 36.2926 19.5883 33.7272 19.5883 30.5657C19.5883 27.426 22.1394 24.853 25.2757 24.853C28.4517 24.853 31.0028 27.426 31.0028 30.5657C31.0028 33.8803 28.6266 36.2926 25.2757 36.2926Z" fill="#DEBB93"/>
<path d="M9.17563 26.7084C7.4192 26.7084 5.97852 25.2315 5.97852 23.4826C5.97852 21.7439 7.45122 20.2998 9.17563 20.2998C10.9498 20.2998 12.3728 21.7195 12.3728 23.4826C12.3728 25.2315 10.9464 26.7084 9.17563 26.7084Z" fill="#FF3B30"/>
<path d="M16.8911 19.7544C14.711 19.7544 12.9385 18.0139 12.9385 15.8085C12.9385 13.6386 14.7001 11.9199 16.8911 11.9199C19.0501 11.9199 20.8336 13.6386 20.8336 15.8085C20.8336 18.0139 19.0501 19.7544 16.8911 19.7544Z" fill="#FFCC00"/>
<path d="M27.4402 16.5603C25.6702 16.5603 24.1975 15.1272 24.1975 13.3572C24.1975 11.5654 25.6702 10.1289 27.4402 10.1289C29.2025 10.1289 30.6433 11.562 30.6433 13.3572C30.6433 15.1306 29.2025 16.5603 27.4402 16.5603Z" fill="#28CD41"/>
<path d="M36.9378 18.0945C35.4903 18.0945 34.304 16.9334 34.304 15.4675C34.304 14.0301 35.4936 12.8438 36.9378 12.8438C38.3935 12.8438 39.5656 14.1395 39.5656 15.4675C39.5656 16.8384 38.397 18.0945 36.9378 18.0945Z" fill="#007AFF"/>
</g>
<defs>
<clipPath id="clip0_933_655">
<rect width="48" height="39.9965" fill="white" transform="translate(0 4)"/>
</clipPath>
</defs>
</svg>
