<svg width="48" height="48" viewBox="0 0 48 48" fill="none" xmlns="http://www.w3.org/2000/svg">
<mask id="path-1-inside-1_933_645" fill="white">
<path d="M0 10C0 4.47715 4.47715 0 10 0H38C43.5228 0 48 4.47715 48 10V38C48 43.5228 43.5228 48 38 48H10C4.47715 48 0 43.5228 0 38V10Z"/>
</mask>
<path d="M0 10C0 4.47715 4.47715 0 10 0H38C43.5228 0 48 4.47715 48 10V38C48 43.5228 43.5228 48 38 48H10C4.47715 48 0 43.5228 0 38V10Z" fill="#FEAC72"/>
<path d="M10 0V2H38V0V-2H10V0ZM48 10H46V38H48H50V10H48ZM38 48V46H10V48V50H38V48ZM0 38H2V10H0H-2V38H0ZM10 48V46C5.58172 46 2 42.4183 2 38H0H-2C-2 44.6274 3.37258 50 10 50V48ZM48 38H46C46 42.4183 42.4183 46 38 46V48V50C44.6274 50 50 44.6274 50 38H48ZM38 0V2C42.4183 2 46 5.58172 46 10H48H50C50 3.37258 44.6274 -2 38 -2V0ZM10 0V-2C3.37258 -2 -2 3.37258 -2 10H0H2C2 5.58172 5.58172 2 10 2V0Z" fill="#FD9449" mask="url(#path-1-inside-1_933_645)"/>
<g clip-path="url(#clip0_933_645)">
<path d="M4 30.8963C4 35.2711 7.85963 38.5958 12.7342 38.5958C17.5999 38.5958 21.4366 35.2711 21.4366 30.8963V27.9115C22.1583 27.7016 22.9732 27.5795 23.8351 27.5795C24.7362 27.5795 25.5261 27.6734 26.2195 27.8724V30.9225C26.2195 35.2973 30.0649 38.6221 34.9219 38.6221C39.7992 38.6221 43.6561 35.2973 43.6561 30.9225C43.6561 29.8705 43.4342 28.6856 42.9425 27.4985L37.1263 13.4306C36.102 10.9162 34.1221 9.56146 31.528 9.56146C28.3005 9.56146 26.2195 11.6775 26.2195 14.9109V15.7339C25.4863 15.537 24.6763 15.4546 23.8351 15.4546C23.0196 15.4546 22.2069 15.5686 21.4366 15.7616V14.8846C21.4366 11.6513 19.3555 9.54395 16.1309 9.54395C13.534 9.54395 11.5628 10.8987 10.5298 13.4043L4.71357 27.481C4.23059 28.6594 4 29.8441 4 30.8963ZM7.90728 30.8963C7.90728 28.562 9.91973 26.9894 12.7342 26.9894C15.5398 26.9894 17.5921 28.562 17.5921 30.8963C17.5921 33.2219 15.5425 34.7918 12.7342 34.7918C9.91973 34.7918 7.90728 33.2191 7.90728 30.8963ZM30.0727 30.9225C30.0727 28.5796 32.125 27.0069 34.9219 27.0069C37.739 27.0069 39.7576 28.5796 39.7576 30.9225C39.7576 33.2454 37.739 34.8093 34.9219 34.8093C32.125 34.8093 30.0727 33.2481 30.0727 30.9225ZM21.4278 23.3268V20.3726C22.1981 20.1708 23.0196 20.0568 23.8351 20.0568C24.6763 20.0568 25.4863 20.1479 26.2195 20.3362V23.2877C25.5261 23.0974 24.7477 22.9949 23.8351 22.9949C22.9644 22.9949 22.1583 23.117 21.4278 23.3268Z" fill="black" fill-opacity="0.85"/>
</g>
<defs>
<clipPath id="clip0_933_645">
<rect width="40" height="29.6218" fill="white" transform="translate(4 9)"/>
</clipPath>
</defs>
</svg>
