<svg width="24" height="24" viewBox="0 0 24 24" fill="none" xmlns="http://www.w3.org/2000/svg">
<g clip-path="url(#clip0_980_1038)">
<path d="M14.1616 1.18593L22.5158 9.64684C24.0613 11.212 24.0717 12.7668 22.5471 14.3108L14.1407 22.8352C12.6057 24.3793 11.0811 24.3688 9.53556 22.8035L1.17097 14.332C-0.374547 12.7668 -0.395433 11.2227 1.13964 9.66796L9.55641 1.1542C11.0915 -0.400486 12.6161 -0.379333 14.1616 1.18593ZM10.2039 15.3261L8.34507 17.5577C7.76028 18.2663 8.71057 18.9644 9.22224 18.3615L11.0811 16.1088C11.269 15.8867 11.3003 15.8338 11.363 15.6011L11.4988 15.1781L10.5067 13.8878L10.2039 15.3261ZM9.95322 8.99109L9.00294 9.94295C8.68968 10.2602 8.58525 10.5246 8.55392 10.9159L8.4495 12.4178C8.42861 12.7879 8.62703 13.0523 8.96115 13.0629C9.31625 13.0946 9.52513 12.8831 9.55641 12.4812L9.69221 10.8314L10.1621 10.4294C10.3187 10.2814 10.5485 10.3659 10.5276 10.5564L10.4232 11.9418C10.371 12.6292 10.5381 12.9783 11.0079 13.5705L12.2819 15.1781C12.3968 15.3261 12.4178 15.4002 12.4699 15.5059L13.7753 18.1923C14.1512 18.9749 15.3208 18.4884 14.8926 17.6317L13.629 15.0089C13.5246 14.829 13.3889 14.607 13.2844 14.4484L12.4595 13.2639L12.5117 13.1052C12.7414 12.4494 12.825 12.0581 12.8563 11.4025L12.9921 9.59395C13.0443 8.70553 12.543 8.04981 11.6658 8.04981C11.0079 8.04981 10.5693 8.38825 9.95322 8.99109ZM13.4829 11.0217L13.8588 11.3919C14.0676 11.6034 14.2347 11.6562 14.6107 11.6562H15.9473C16.3337 11.6562 16.5634 11.4447 16.5634 11.0957C16.5634 10.7467 16.3337 10.5352 15.9473 10.5352H14.5062L13.5978 9.5093L13.4829 11.0217ZM11.0497 6.15669C11.0497 6.88644 11.6345 7.48928 12.3655 7.48928C13.0861 7.48928 13.6708 6.88644 13.6708 6.15669C13.6708 5.42694 13.0861 4.83468 12.3655 4.83468C11.6345 4.83468 11.0497 5.42694 11.0497 6.15669Z" fill="#121217"/>
</g>
<defs>
<clipPath id="clip0_980_1038">
<rect width="24" height="24" fill="white"/>
</clipPath>
</defs>
</svg>
